<svg width="609" height="672" viewBox="0 0 609 672" fill="none" xmlns="http://www.w3.org/2000/svg">
<path d="M314.536 655.442C412.069 655.442 491.136 642.727 491.136 627.042C491.136 611.357 412.069 598.642 314.536 598.642C217.002 598.642 137.936 611.357 137.936 627.042C137.936 642.727 217.002 655.442 314.536 655.442Z" fill="#EF924D"/>
<path d="M297.834 619.041H280.234L281.434 605.441H298.934L297.834 619.041Z" fill="#FFAB91"/>
<path d="M351.934 623.241H335.334L337.334 606.241L351.934 608.341V623.241Z" fill="#FFAB91"/>
<path d="M297.834 619.041H280.234L281.434 605.441H298.934L297.834 619.041Z" stroke="#46133C" stroke-width="3" stroke-miterlimit="10" stroke-linecap="round" stroke-linejoin="round"/>
<path d="M351.934 623.241H335.334L337.334 606.241L351.934 608.341V623.241Z" stroke="#46133C" stroke-width="3" stroke-miterlimit="10" stroke-linecap="round" stroke-linejoin="round"/>
<path d="M272.234 437.741C275.534 438.641 261.934 517.341 276.534 605.741C284.334 607.041 296.934 608.441 303.234 605.841C309.334 599.741 309.834 481.741 309.834 473.841C315.134 474.841 318.234 476.141 321.534 479.441C325.734 483.641 331.034 598.641 331.034 607.341C337.934 610.641 353.134 611.141 357.534 609.241C361.534 605.241 368.534 450.941 360.634 432.441C352.134 437.141 317.734 442.941 272.234 437.741Z" fill="#5F235A"/>
<g opacity="0.15">
<path d="M272.634 438.441C283.934 439.441 294.434 439.841 303.934 439.741C294.234 439.641 283.534 439.041 272.234 437.741C272.434 437.741 272.534 438.041 272.634 438.441Z" fill="#5F235A"/>
<path d="M302.834 473.841C302.834 481.741 302.234 599.741 296.234 605.841C294.434 606.541 292.034 606.941 289.434 607.141C294.734 607.441 299.934 607.241 303.334 605.841C309.134 600.041 309.934 493.941 309.934 476.041C307.934 474.941 305.734 474.341 302.834 473.841Z" fill="#5F235A"/>
<path d="M360.735 432.341C359.335 433.141 357.135 433.941 354.435 434.741C354.735 435.841 279.735 437.941 280.235 439.441C283.735 448.641 355.635 442.041 355.835 443.941C360.035 484.841 354.135 605.641 350.535 609.241C349.335 609.741 347.435 610.041 345.135 610.241C350.435 610.541 355.335 610.241 357.535 609.241C361.635 605.141 368.635 450.841 360.735 432.341Z" fill="#5F235A"/>
</g>
<path d="M361.335 434.241C361.135 433.541 360.935 432.841 360.735 432.341C354.735 435.741 336.135 439.541 310.035 439.741C333.935 440.041 352.135 437.241 361.335 434.241Z" fill="#5F235A"/>
<path d="M280.234 605.441C266.334 520.941 275.934 446.341 280.234 438.341C278.434 438.141 274.134 437.941 272.234 437.741C275.534 438.641 261.934 517.341 276.534 605.741C281.834 606.641 289.334 607.541 295.634 607.241C290.734 607.041 284.134 606.041 280.234 605.441Z" fill="white"/>
<path d="M333.234 608.041C335.334 584.441 332.134 482.341 323.834 477.841C319.734 475.641 318.134 474.141 312.834 473.141C312.834 473.441 315.234 474.441 315.234 475.041C317.734 475.941 319.734 477.241 321.734 479.241C325.934 483.441 331.234 598.441 331.234 607.141C336.134 609.441 345.134 610.441 351.534 610.041C345.934 609.941 336.834 609.841 333.234 608.041Z" fill="white"/>
<path d="M272.234 437.741C275.534 438.641 261.934 517.341 276.534 605.741C284.334 607.041 296.934 608.441 303.234 605.841C309.334 599.741 309.834 481.741 309.834 473.841C315.134 474.841 318.234 476.141 321.534 479.441C325.734 483.641 331.034 598.641 331.034 607.341C337.934 610.641 353.134 611.141 357.534 609.241C361.534 605.241 368.534 450.941 360.634 432.441C352.134 437.141 317.734 442.941 272.234 437.741Z" stroke="#46133C" stroke-width="3" stroke-miterlimit="10" stroke-linecap="round" stroke-linejoin="round"/>
<path d="M309.933 473.841L304.133 473.241" stroke="#46133C" stroke-width="3" stroke-miterlimit="10" stroke-linecap="round" stroke-linejoin="round"/>
<path d="M256.834 636.241C256.834 636.241 278.334 637.541 296.234 634.341C304.534 634.341 303.034 616.141 303.034 616.141C303.034 616.141 292.734 619.441 284.134 617.741C275.534 616.041 277.234 614.941 277.234 614.941C277.234 614.941 243.534 620.541 239.034 625.041C234.634 629.441 237.534 636.241 256.834 636.241Z" fill="#75CC9C"/>
<path d="M244.234 626.441C248.534 622.141 271.734 618.241 279.734 616.841C276.134 615.741 277.234 615.042 277.234 615.042C277.234 615.042 243.534 620.641 239.034 625.141C235.434 628.741 236.734 633.941 247.734 635.641C241.634 633.241 239.434 631.241 244.234 626.441Z" fill="white"/>
<path d="M318.435 641.041C318.835 644.341 322.135 651.641 339.035 647.641C350.935 644.841 352.235 637.141 354.635 631.941C357.035 626.741 353.935 617.941 353.935 617.941C353.935 617.941 352.235 621.541 346.935 621.541C339.435 621.541 332.735 617.041 332.735 617.041C332.335 616.341 317.735 634.841 318.435 641.041Z" fill="#75CC9C"/>
<path d="M341.134 646.041C324.334 650.041 322.734 641.041 322.334 637.641C321.834 633.341 328.934 622.841 333.334 617.241C333.034 617.041 332.834 616.941 332.834 616.941C332.434 616.241 317.734 634.741 318.434 640.941C318.834 644.241 322.134 651.541 339.034 647.541C344.234 646.341 347.434 644.141 349.534 641.641C347.734 642.741 343.834 645.441 341.134 646.041Z" fill="white"/>
<path d="M256.834 636.241C256.834 636.241 278.334 637.541 296.234 634.341C304.534 634.341 303.034 616.141 303.034 616.141C303.034 616.141 292.834 618.741 284.134 617.741C280.434 617.341 278.634 616.141 277.734 615.441C277.334 615.141 276.834 614.941 276.334 615.041C271.034 615.941 243.034 620.941 239.034 624.941C234.634 629.441 237.534 636.241 256.834 636.241Z" stroke="#46133C" stroke-width="3" stroke-miterlimit="10" stroke-linecap="round" stroke-linejoin="round"/>
<path d="M318.435 641.041C319.135 644.341 322.135 651.641 339.035 647.641C350.935 644.841 353.235 637.441 354.635 631.941C356.035 626.541 353.935 617.941 353.935 617.941C353.935 617.941 352.235 621.541 346.935 621.541C339.435 621.541 333.735 617.641 333.735 617.641C330.135 619.241 316.435 631.841 318.435 641.041Z" stroke="#46133C" stroke-width="3" stroke-miterlimit="10" stroke-linecap="round" stroke-linejoin="round"/>
<path d="M258.533 617.042C258.533 617.042 263.133 617.641 263.733 622.341" stroke="#46133C" stroke-width="3" stroke-miterlimit="10" stroke-linecap="round" stroke-linejoin="round"/>
<path d="M263.734 615.141C263.734 615.141 268.334 615.741 268.934 620.441" stroke="#46133C" stroke-width="3" stroke-miterlimit="10" stroke-linecap="round" stroke-linejoin="round"/>
<path d="M269.033 613.741C269.033 613.741 273.633 614.341 274.233 619.041" stroke="#46133C" stroke-width="3" stroke-miterlimit="10" stroke-linecap="round" stroke-linejoin="round"/>
<path d="M330.133 631.441C330.133 631.441 334.233 629.341 337.433 632.941" stroke="#46133C" stroke-width="3" stroke-miterlimit="10" stroke-linecap="round" stroke-linejoin="round"/>
<path d="M332.334 627.641C332.334 627.641 336.434 625.541 339.634 629.141" stroke="#46133C" stroke-width="3" stroke-miterlimit="10" stroke-linecap="round" stroke-linejoin="round"/>
<path d="M333.734 623.841C333.734 623.841 337.834 621.741 341.034 625.341" stroke="#46133C" stroke-width="3" stroke-miterlimit="10" stroke-linecap="round" stroke-linejoin="round"/>
<path d="M342.533 437.741C342.533 437.741 350.133 469.841 364.333 469.841" stroke="#46133C" stroke-width="3" stroke-miterlimit="10" stroke-linecap="round" stroke-linejoin="round"/>
<path d="M280.233 439.441C280.233 439.441 278.133 460.441 271.533 462.841" stroke="#46133C" stroke-width="3" stroke-miterlimit="10" stroke-linecap="round" stroke-linejoin="round"/>
<path d="M345.634 391.241H378.234C378.234 391.241 398.734 309.241 340.234 265.341C336.534 261.641 322.634 261.441 322.634 261.441C294.234 270.341 285.134 289.341 285.134 289.341L272.134 266.341C272.134 266.341 256.934 271.541 255.334 296.541C237.234 322.241 206.434 324.441 188.534 306.641C182.634 312.241 166.734 328.941 166.734 328.941C166.734 328.941 183.134 348.341 211.334 351.241C240.834 354.241 261.534 335.341 267.334 328.941C272.134 333.741 280.534 400.941 268.434 433.141C267.834 434.841 268.634 436.741 270.334 437.341C275.434 439.041 287.434 441.741 311.034 441.541C327.834 441.441 357.734 436.141 357.734 436.141L345.634 391.241Z" fill="#EE406D"/>
<path d="M188.534 308.741L171.434 333.441L164.834 327.641L188.534 308.741Z" fill="#EE406D"/>
<path opacity="0.15" d="M310.033 391.241C310.033 391.241 294.133 440.941 303.933 451.141C309.133 456.541 347.533 460.941 350.433 461.941C353.433 462.941 364.033 462.841 364.033 462.841L362.833 443.441L310.033 391.241Z" fill="#5F235A"/>
<path d="M332.734 302.341C332.734 302.341 341.734 321.241 342.534 355.641C342.934 374.741 338.234 391.241 338.234 391.241L344.234 394.541C344.234 394.541 348.934 387.741 349.034 361.041C349.134 337.041 343.134 317.241 332.734 302.341Z" fill="#EE406D"/>
<path d="M279.136 288.441C279.136 288.441 280.036 286.641 282.036 283.841L272.136 266.341C272.136 266.341 270.336 266.941 267.936 268.741L279.136 288.441Z" fill="#EE406D"/>
<path d="M340.235 265.341C337.935 263.041 331.835 262.141 327.535 261.741C330.335 262.341 332.935 263.241 334.235 264.541C392.735 308.441 372.235 390.441 372.235 390.441H339.635L351.735 435.041C351.735 435.041 321.835 440.341 305.035 440.441C294.335 440.541 286.035 440.041 279.635 439.241C286.435 440.441 296.535 441.341 311.035 441.241C327.835 441.141 357.735 435.841 357.735 435.841L345.635 391.241H378.235C378.235 391.241 398.735 309.241 340.235 265.341Z" fill="#EE406D"/>
<path d="M265.035 324.241C259.235 330.641 234.935 353.141 205.635 350.341C207.435 350.641 209.335 350.941 211.335 351.141C235.935 353.641 258.535 336.841 267.335 328.841C266.635 326.341 265.735 324.841 265.035 324.241Z" fill="#EE406D"/>
<path d="M288.734 291.641C288.734 291.641 298.134 272.041 327.334 262.941C327.334 262.941 333.034 263.041 338.234 264.041C333.034 261.641 322.634 261.441 322.634 261.441C299.834 268.541 289.434 282.241 286.334 287.341L288.734 291.641Z" fill="#EE406D"/>
<path d="M188.534 308.741C206.934 327.141 239.434 325.441 258.034 299.041C259.334 278.641 268.834 270.041 272.934 267.741L272.134 266.341C272.134 266.341 256.934 271.541 255.334 296.541C237.234 322.241 206.434 324.441 188.534 306.641C182.634 312.241 166.734 328.941 166.734 328.941C166.734 328.941 166.734 327.841 167.834 328.941C172.234 324.241 183.634 313.341 188.534 308.741Z" fill="white"/>
<path d="M270.334 332.441C270.034 332.741 269.634 333.141 269.334 333.541C274.034 350.241 279.034 404.941 268.434 433.041C267.834 434.741 268.634 436.641 270.334 437.241C270.834 437.441 271.534 437.641 272.134 437.841C283.634 403.841 275.234 337.241 270.334 332.441Z" fill="white"/>
<path d="M345.634 391.241H378.234C378.234 391.241 398.734 309.241 340.234 265.341C336.534 261.641 322.634 261.441 322.634 261.441C294.234 270.341 285.134 289.341 285.134 289.341L272.134 266.341C272.134 266.341 256.934 271.541 255.334 296.541C237.234 322.241 206.434 324.441 188.534 306.641C182.634 312.241 166.734 328.941 166.734 328.941C166.734 328.941 183.134 348.341 211.334 351.241C240.834 354.241 261.534 335.341 267.334 328.941C272.134 333.741 280.534 400.941 268.434 433.141C267.834 434.841 268.634 436.741 270.334 437.341C275.434 439.041 287.434 441.741 311.034 441.541C327.834 441.441 357.734 436.141 357.734 436.141L345.634 391.241Z" stroke="#46133C" stroke-width="3" stroke-miterlimit="10" stroke-linecap="round" stroke-linejoin="round"/>
<path d="M384.132 454.542C361.632 454.042 339.332 452.442 316.932 449.942C310.232 449.142 305.232 443.242 305.532 436.542C306.232 423.442 307.532 410.342 309.232 397.242C310.132 390.542 316.032 385.642 322.832 386.142C344.832 387.642 366.832 390.242 388.932 393.642C395.332 394.642 400.032 400.242 399.832 406.742C399.432 418.942 398.532 431.042 397.232 443.142C396.432 449.742 390.732 454.742 384.132 454.542Z" fill="#FFA45A"/>
<path d="M384.132 454.542C361.632 454.042 339.332 452.442 316.932 449.942C310.232 449.142 305.232 443.242 305.532 436.542C306.232 423.442 307.532 410.342 309.232 397.242C310.132 390.542 316.032 385.642 322.832 386.142C344.832 387.642 366.832 390.242 388.932 393.642C395.332 394.642 400.032 400.242 399.832 406.742C399.432 418.942 398.532 431.042 397.232 443.142C396.432 449.742 390.732 454.742 384.132 454.542Z" fill="#FFA45A"/>
<path d="M309.933 437.941C310.633 424.841 311.933 411.741 313.633 398.641C314.533 391.941 320.433 387.041 327.233 387.541C349.233 389.041 371.233 391.641 393.333 395.041C394.033 395.141 394.733 395.341 395.333 395.541C393.533 394.041 391.333 392.941 388.833 392.541C366.733 389.141 344.733 386.541 322.733 385.041C316.033 384.541 310.033 389.441 309.133 396.141C307.433 409.241 306.233 422.341 305.433 435.441C305.133 441.341 308.833 446.541 314.333 448.341C311.433 445.841 309.733 442.041 309.933 437.941Z" fill="white"/>
<path d="M384.132 454.542C361.632 454.042 339.332 452.442 316.932 449.942C310.232 449.142 305.232 443.242 305.532 436.542C306.232 423.442 307.532 410.342 309.232 397.242C310.132 390.542 316.032 385.642 322.832 386.142C344.832 387.642 366.832 390.242 388.932 393.642C395.332 394.642 400.032 400.242 399.832 406.742C399.432 418.942 398.532 431.042 397.232 443.142C396.432 449.742 390.732 454.742 384.132 454.542Z" stroke="#46133C" stroke-width="3" stroke-miterlimit="10" stroke-linecap="round" stroke-linejoin="round"/>
<path d="M345.635 391.242C358.335 331.542 331.135 300.142 331.135 300.142" stroke="#46133C" stroke-width="3" stroke-miterlimit="10" stroke-linecap="round" stroke-linejoin="round"/>
<path d="M262.934 322.042C262.934 322.042 265.434 323.342 267.334 328.842" stroke="#46133C" stroke-width="4" stroke-miterlimit="10" stroke-linecap="round" stroke-linejoin="round"/>
<path d="M299.834 358.142C299.834 358.142 301.034 364.442 297.934 375.942" stroke="#46133C" stroke-width="3" stroke-miterlimit="10" stroke-linecap="round" stroke-linejoin="round"/>
<path d="M293.735 231.142C293.735 231.142 294.035 244.142 294.035 249.742C294.035 255.342 275.535 273.442 275.535 273.442C275.535 273.442 268.235 262.642 270.835 247.742C273.435 232.842 287.835 231.142 287.835 231.142H293.735Z" fill="#CC1F49"/>
<path d="M277.434 276.041C277.434 269.241 284.434 246.741 274.334 225.541C267.334 210.941 243.034 206.441 229.134 195.241C188.734 162.641 208.834 73.0414 208.834 73.0414C208.834 73.0414 224.934 47.4414 277.534 47.4414C295.034 47.4414 310.534 54.9414 324.734 98.1414C338.834 141.341 325.934 165.341 325.934 165.341C318.534 180.441 311.234 216.941 331.234 251.741L335.434 258.041C335.434 258.041 295.134 274.641 289.934 291.141C284.734 307.541 277.434 276.041 277.434 276.041Z" fill="#FFAB91"/>
<path opacity="0.43" d="M331.134 251.641C311.134 216.841 318.434 180.341 325.834 165.241C325.834 165.241 338.834 141.241 324.634 98.0413C310.534 54.8413 294.934 47.3413 277.434 47.3413C256.434 47.3413 241.234 51.4413 230.534 56.3413C240.534 52.8413 253.434 50.3413 270.034 50.3413C273.934 50.3413 277.734 50.7413 281.534 51.8413C268.534 53.0413 213.134 63.8413 208.834 73.0413C208.834 73.0413 214.834 91.5413 237.734 98.9413C253.434 104.041 270.534 102.441 285.134 101.041C290.334 102.641 291.134 118.641 321.134 127.441C332.234 130.741 316.934 175.141 314.534 188.441C312.234 201.041 313.834 226.441 319.534 239.841C323.234 248.641 319.334 246.941 311.534 252.341C309.134 253.941 298.734 260.641 298.134 261.541C290.534 271.741 298.634 268.441 283.034 292.541C285.234 296.541 287.734 298.041 289.834 291.141C294.934 274.641 335.334 258.041 335.334 258.041L331.134 251.641Z" fill="#FFAB91"/>
<path d="M280.134 278.641C280.134 271.341 289.534 248.341 278.734 225.641C271.234 210.041 247.434 204.441 232.634 192.441C197.234 163.941 206.934 94.7413 210.934 70.3413C209.534 71.9413 208.934 72.9413 208.934 72.9413C208.934 72.9413 188.834 162.641 229.234 195.141C243.134 206.341 267.434 210.841 274.434 225.441C284.534 246.741 277.534 269.141 277.534 275.941C277.534 275.941 279.534 285.441 281.434 288.841C279.234 283.041 280.134 278.641 280.134 278.641Z" fill="white"/>
<path d="M277.434 276.041C277.434 269.241 284.434 246.741 274.334 225.541C267.334 210.941 243.034 206.441 229.134 195.241C188.734 162.641 208.834 73.0414 208.834 73.0414C208.834 73.0414 224.934 47.4414 277.534 47.4414C295.034 47.4414 310.534 54.9414 324.734 98.1414C338.834 141.341 325.934 165.341 325.934 165.341C318.534 180.441 311.234 216.941 331.234 251.741L335.434 258.041C335.434 258.041 295.134 274.641 289.934 291.141C284.734 307.541 277.434 276.041 277.434 276.041Z" stroke="#46133C" stroke-width="3" stroke-miterlimit="10" stroke-linecap="round" stroke-linejoin="round"/>
<path d="M233.734 133.042C233.734 133.042 234.134 142.842 227.234 151.642C229.034 156.142 237.634 155.441 237.634 155.441" stroke="#46133C" stroke-width="3" stroke-miterlimit="10" stroke-linecap="round" stroke-linejoin="round"/>
<path d="M229.934 167.241C229.834 167.941 243.534 171.941 251.134 163.241C247.134 172.841 241.634 177.041 229.234 177.041" fill="#FF5757"/>
<path d="M224.135 165.641C224.035 166.341 243.535 171.941 251.035 163.241C247.035 172.841 241.535 177.041 229.135 177.041" stroke="#46133C" stroke-width="3" stroke-miterlimit="10" stroke-linecap="round" stroke-linejoin="round"/>
<path d="M229.135 177.041C229.135 177.041 232.635 171.841 229.135 167.241" stroke="#46133C" stroke-width="3" stroke-miterlimit="10" stroke-linecap="round" stroke-linejoin="round"/>
<path opacity="0.71" d="M267.934 145.741L251.534 143.541C245.334 142.741 241.034 136.241 241.834 129.141L242.834 120.841C243.634 113.741 249.334 108.441 255.534 109.041L271.934 110.641C278.434 111.241 283.134 117.841 282.234 125.241L281.234 133.941C280.434 141.341 274.434 146.641 267.934 145.741Z" fill="white"/>
<path opacity="0.71" d="M220.334 142.742L201.834 141.542C194.834 141.142 189.534 134.642 189.834 127.242L190.234 118.542C190.634 111.042 196.534 105.242 203.534 105.442L222.034 106.042C229.334 106.242 235.134 112.742 234.734 120.542L234.334 129.642C233.934 137.342 227.634 143.242 220.334 142.742Z" fill="white"/>
<path d="M254.436 133.041C256.148 133.041 257.536 130.534 257.536 127.441C257.536 124.348 256.148 121.841 254.436 121.841C252.724 121.841 251.336 124.348 251.336 127.441C251.336 130.534 252.724 133.041 254.436 133.041Z" fill="#46133C"/>
<path d="M224.135 129.742C225.847 129.742 227.235 127.234 227.235 124.142C227.235 121.049 225.847 118.542 224.135 118.542C222.423 118.542 221.035 121.049 221.035 124.142C221.035 127.234 222.423 129.742 224.135 129.742Z" fill="#46133C"/>
<path d="M277.435 233.642C277.435 233.642 265.135 249.442 272.135 266.342C277.135 278.342 279.635 287.942 285.135 295.842C291.735 287.642 297.735 270.042 316.435 262.342C335.035 254.742 332.635 250.242 332.635 247.642C332.635 245.242 329.435 238.542 325.235 238.542" stroke="#46133C" stroke-width="3" stroke-miterlimit="10" stroke-linecap="round" stroke-linejoin="round"/>
<path d="M303.235 283.441C303.235 283.441 294.035 294.241 294.035 328.841" stroke="#46133C" stroke-width="3" stroke-miterlimit="10" stroke-linecap="round" stroke-linejoin="round"/>
<path d="M277.435 276.042C277.435 276.042 273.135 301.942 277.435 306.242" stroke="#46133C" stroke-width="3" stroke-miterlimit="10" stroke-linecap="round" stroke-linejoin="round"/>
<path d="M72.4349 190.841C72.4349 190.841 66.7349 196.941 70.3349 206.141C74.9349 217.641 72.4349 220.541 70.3349 226.241" stroke="#46133C" stroke-width="3" stroke-miterlimit="10" stroke-linecap="round" stroke-linejoin="round"/>
<path d="M297.135 92.6414C299.435 94.9414 290.735 100.041 303.435 112.741C316.235 125.541 321.835 125.841 321.835 135.941C321.835 146.041 323.135 169.941 332.635 174.241C342.135 178.541 363.835 145.141 360.835 111.241C358.835 89.8415 349.835 72.3414 339.535 65.3414C335.035 41.0414 309.135 26.0415 289.535 22.7415C260.035 17.8415 243.335 34.6415 241.935 33.2415C231.135 36.5415 222.435 37.0414 215.835 36.3414C205.735 35.3414 197.535 44.4414 199.535 54.3414V54.4414C203.635 74.1414 219.635 84.4414 224.435 87.5414C234.235 93.8414 243.335 95.6414 245.835 96.1414C255.635 97.8414 264.235 96.5415 271.835 95.4415C286.135 93.3415 294.535 89.9414 297.135 92.6414Z" fill="#6D524E"/>
<path d="M297.135 92.6414C299.435 94.9414 290.735 100.041 303.435 112.741C316.235 125.541 321.835 125.841 321.835 135.941C321.835 146.041 323.135 169.941 332.635 174.241C342.135 178.541 363.835 145.141 360.835 111.241C358.835 89.8415 349.835 72.3414 339.535 65.3414C335.035 41.0414 309.135 26.0415 289.535 22.7415C260.035 17.8415 243.335 34.6415 241.935 33.2415C231.135 36.5415 222.435 37.0414 215.835 36.3414C205.735 35.3414 197.535 44.4414 199.535 54.3414V54.4414C203.635 74.1414 219.635 84.4414 224.435 87.5414C234.235 93.8414 243.335 95.6414 245.835 96.1414C255.635 97.8414 264.235 96.5415 271.835 95.4415C286.135 93.3415 294.535 89.9414 297.135 92.6414Z" fill="#5F2E50"/>
<g opacity="0.34">
<path d="M338.934 63.0417C337.134 55.6417 333.334 49.2417 328.334 43.7417C331.634 48.5417 334.134 54.0417 335.234 60.0417C336.434 60.8417 337.734 61.8417 338.934 63.0417Z" fill="#5F2E50"/>
<path d="M298.535 87.2416C295.935 84.6416 281.835 88.0416 267.535 90.2416C259.935 91.4416 251.435 92.7416 241.535 90.9416C239.035 90.5416 229.935 88.7416 220.135 82.3416C217.635 80.7416 211.935 77.0416 206.635 71.1416C212.935 80.3416 221.135 85.6416 224.435 87.7416C234.235 94.0416 243.335 95.8416 245.835 96.3416C255.635 98.0416 264.235 96.7416 271.835 95.6416C281.235 94.2416 288.135 92.2416 292.435 91.8416C300.835 91.4416 299.435 88.1416 298.535 87.2416Z" fill="#5F2E50"/>
<path d="M299.235 107.342C299.035 107.142 298.835 106.842 298.535 106.642C299.635 108.442 301.235 110.442 303.435 112.642C309.135 118.342 313.435 121.642 316.435 124.342C314.235 119.542 308.735 116.942 299.235 107.342Z" fill="#5F2E50"/>
<path d="M360.735 111.242C359.135 93.5418 352.635 78.4418 344.635 69.8418C350.635 78.7418 355.235 91.3418 356.535 105.842C359.635 139.642 337.835 173.042 328.335 168.842C327.835 168.642 327.435 168.342 327.035 168.042C328.435 170.942 330.335 173.142 332.635 174.142C342.135 178.442 363.835 145.042 360.735 111.242Z" fill="#5F2E50"/>
</g>
<path d="M204.135 59.0415V58.9416C202.135 49.0416 210.335 39.8416 220.435 40.9416C227.035 41.6416 234.435 39.8415 245.235 36.5415C248.735 34.4415 263.835 22.0415 293.335 27.0415C304.235 28.8415 317.935 34.7415 327.935 43.3415C317.435 32.0415 302.135 24.9415 289.435 22.8415C259.935 17.9415 243.235 34.7415 241.835 33.3415C231.035 36.6415 222.335 37.1416 215.735 36.4416C205.635 35.4416 197.435 44.5416 199.435 54.4416V54.5415C202.035 67.2415 209.635 76.0415 216.035 81.5415C211.035 76.1415 206.135 68.7415 204.135 59.0415Z" fill="white"/>
<path d="M344.135 69.9416C344.635 70.3416 345.135 70.6416 345.735 71.0416C345.135 70.3416 344.635 69.7416 344.035 69.1416C344.035 69.4416 344.035 69.6416 344.135 69.9416Z" fill="#5F2E50"/>
<path d="M236.935 34.9416C230.035 37.1416 221.435 36.9416 215.735 36.3416C205.635 35.3416 197.435 44.4416 199.435 54.3416V54.4416C203.535 74.1416 219.535 84.4415 224.335 87.5415C234.135 93.8415 243.235 95.6416 245.735 96.1416C255.535 97.8416 264.135 96.5416 271.735 95.4416C286.135 93.2416 294.435 89.8416 297.135 92.4416C299.435 94.7416 290.735 99.8415 303.435 112.542C316.235 125.342 321.835 125.642 321.835 135.742C321.835 145.842 323.135 169.742 332.635 174.042C342.135 178.342 363.835 144.942 360.835 111.042C358.835 89.6416 349.835 72.1416 339.535 65.1416C335.035 40.8416 309.135 25.8416 289.535 22.5416C260.035 17.6416 249.135 29.5416 242.635 32.5416" stroke="#46133C" stroke-width="3" stroke-miterlimit="10" stroke-linecap="round" stroke-linejoin="round"/>
<path d="M314.635 83.0416C313.535 83.3416 301.835 79.8416 298.135 92.8416" stroke="#46133C" stroke-width="3" stroke-miterlimit="10" stroke-linecap="round" stroke-linejoin="round"/>
<path d="M321.634 228.941C321.634 228.941 328.634 220.141 339.534 231.141C350.534 242.141 357.734 242.341 365.934 253.941C375.334 267.241 375.334 285.641 365.834 287.941C363.534 288.541 357.334 278.941 351.434 272.741C345.534 266.541 336.634 262.541 332.734 266.341C328.834 270.141 313.734 283.441 301.334 271.041C290.734 260.441 332.634 255.541 332.634 247.741C332.634 239.841 323.934 239.641 321.634 228.941Z" fill="#FF3B61"/>
<path d="M328.736 263.041C323.136 270.241 310.636 272.341 300.436 270.041C300.636 270.341 300.936 270.741 301.336 271.041C313.736 283.441 330.736 268.341 334.636 264.441C336.536 262.541 346.436 266.341 351.436 272.741C347.736 262.741 331.836 259.041 328.736 263.041Z" fill="#FF3B61"/>
<path d="M365.936 253.941C357.736 242.341 350.536 242.141 339.536 231.141C336.236 227.841 333.436 226.341 330.936 225.841C341.636 236.241 348.736 236.641 356.736 248.041C365.336 260.241 366.036 276.941 358.636 281.241C361.836 285.141 364.436 288.241 365.836 287.941C375.336 285.541 375.336 267.141 365.936 253.941Z" fill="#FF3B61"/>
<path d="M321.634 228.941C321.634 228.941 328.634 220.141 339.534 231.141C350.534 242.141 357.734 242.341 365.934 253.941C375.334 267.241 375.334 285.641 365.834 287.941C363.534 288.541 357.334 278.941 351.434 272.741C345.534 266.541 336.634 262.541 332.734 266.341C328.834 270.141 313.734 283.441 301.334 271.041C290.734 260.441 332.634 255.541 332.634 247.741C332.634 239.841 323.934 239.641 321.634 228.941Z" stroke="#46133C" stroke-width="3" stroke-miterlimit="10" stroke-linecap="round" stroke-linejoin="round"/>
<path d="M333.734 454.541C328.234 451.541 333.934 440.241 333.934 440.241C331.834 442.341 328.034 443.041 323.134 443.041C318.234 443.041 319.434 439.041 325.534 433.041C331.634 426.941 335.434 425.141 338.734 423.441C348.534 418.541 346.734 409.941 346.734 409.941L370.634 409.241C370.634 409.241 367.134 419.441 368.334 421.841C375.234 436.141 363.634 451.041 362.834 452.741C361.534 455.441 355.734 457.041 352.634 455.441C347.734 458.141 341.034 455.541 340.734 454.941C338.434 456.241 335.234 455.441 333.734 454.541Z" fill="#FFAB91"/>
<path d="M333.734 454.541C328.234 451.541 333.934 440.241 333.934 440.241C331.834 442.341 328.034 443.041 323.134 443.041C318.234 443.041 319.434 439.041 325.534 433.041C331.634 426.941 335.434 425.141 338.734 423.441C348.534 418.541 346.734 409.941 346.734 409.941L370.634 409.241C370.634 409.241 367.134 419.441 368.334 421.841C375.234 436.141 363.634 451.041 362.834 452.741C361.534 455.441 355.734 457.041 352.634 455.441C347.734 458.141 341.034 455.541 340.734 454.941C338.434 456.241 335.234 455.441 333.734 454.541Z" fill="#FFAB91"/>
<path d="M324.634 436.041C331.234 429.441 336.134 427.741 342.534 424.341C351.334 419.641 350.134 411.541 349.934 409.341L346.834 410.041C346.834 410.041 348.634 418.641 338.834 423.541C335.534 425.241 331.734 427.041 325.634 433.141C319.534 439.241 318.334 443.141 323.234 443.141C322.034 441.341 320.634 439.941 324.634 436.041Z" fill="white"/>
<g opacity="0.43">
<path d="M326.635 440.941C325.635 441.941 324.235 442.641 322.535 443.141C322.735 443.141 322.935 443.141 323.135 443.141C324.035 443.141 324.835 443.141 325.635 443.041C326.235 441.741 326.635 440.941 326.635 440.941Z" fill="#FFAB91"/>
<path d="M370.635 409.341L364.935 409.541C364.035 412.441 361.835 420.741 362.835 422.841C370.135 437.941 360.635 458.041 355.135 456.241C358.135 456.441 361.735 454.941 362.735 452.941C363.535 451.241 375.135 436.341 368.235 422.041C367.135 419.541 370.635 409.341 370.635 409.341Z" fill="#FFAB91"/>
</g>
<path d="M333.735 454.541C328.235 451.541 333.935 440.241 333.935 440.241C331.835 442.341 327.835 444.541 323.135 443.041C320.435 442.141 319.435 439.041 325.535 433.041C331.635 426.941 335.435 425.141 338.735 423.441C348.535 418.541 346.735 409.941 346.735 409.941L370.635 409.241C370.635 409.241 367.135 419.441 368.335 421.841C375.235 436.141 363.635 451.041 362.835 452.741C361.535 455.441 355.735 457.041 352.635 455.441C347.735 458.141 341.035 455.541 340.735 454.941C338.435 456.241 335.235 455.441 333.735 454.541Z" stroke="#46133C" stroke-width="3" stroke-miterlimit="10" stroke-linecap="round" stroke-linejoin="round"/>
<path d="M342.534 450.741C342.534 450.741 342.234 452.741 340.734 455.041" stroke="#46133C" stroke-width="3" stroke-miterlimit="10" stroke-linecap="round" stroke-linejoin="round"/>
<path d="M353.535 450.241C353.535 450.241 352.635 452.941 352.635 455.541" stroke="#46133C" stroke-width="3" stroke-miterlimit="10" stroke-linecap="round" stroke-linejoin="round"/>
<path d="M340.834 391.242C340.834 391.242 350.234 386.942 364.234 389.042C378.234 391.242 381.734 391.242 381.734 391.242L377.634 409.342C377.634 409.342 343.234 409.342 340.834 409.342C338.434 409.342 340.834 406.342 340.834 406.342V391.242Z" fill="#FF3B61"/>
<path d="M345.134 406.341V391.241C345.134 391.241 350.234 388.941 358.534 388.541C347.734 388.041 340.834 391.241 340.834 391.241V406.341C340.834 406.341 338.434 409.341 340.834 409.341C341.334 409.341 342.834 409.341 345.134 409.341C342.734 409.341 345.134 406.341 345.134 406.341Z" fill="white"/>
<path d="M340.834 391.242C340.834 391.242 350.234 386.942 364.234 389.042C378.234 391.242 381.734 391.242 381.734 391.242L377.634 409.342C377.634 409.342 343.234 409.342 340.834 409.342C338.434 409.342 340.834 406.342 340.834 406.342V391.242Z" stroke="#46133C" stroke-width="3" stroke-miterlimit="10" stroke-linecap="round" stroke-linejoin="round"/>
<path d="M202.334 120.842L190.234 119.342" stroke="#46133C" stroke-width="3" stroke-miterlimit="10" stroke-linecap="round" stroke-linejoin="round"/>
<path d="M220.334 142.742L201.834 141.542C194.834 141.142 189.534 134.642 189.834 127.242L190.234 118.542C190.634 111.042 196.534 105.242 203.534 105.442L222.034 106.042C229.334 106.242 235.134 112.742 234.734 120.542L234.334 129.642C233.934 137.342 227.634 143.242 220.334 142.742Z" stroke="#46133C" stroke-width="3" stroke-miterlimit="10" stroke-linecap="round" stroke-linejoin="round"/>
<path d="M267.934 145.741L251.534 143.541C245.334 142.741 241.034 136.241 241.834 129.141L242.834 120.841C243.634 113.741 249.334 108.441 255.534 109.041L271.934 110.641C278.434 111.241 283.134 117.841 282.234 125.241L281.234 133.941C280.434 141.341 274.434 146.641 267.934 145.741Z" stroke="#46133C" stroke-width="3" stroke-miterlimit="10" stroke-linecap="round" stroke-linejoin="round"/>
<path d="M316.935 124.142L282.135 120.542" stroke="#46133C" stroke-width="3" stroke-miterlimit="10" stroke-linecap="round" stroke-linejoin="round"/>
<path d="M235.234 120.642C235.234 120.642 239.234 118.342 242.334 120.842" stroke="#46133C" stroke-width="4" stroke-miterlimit="10" stroke-linecap="round" stroke-linejoin="round"/>
<path d="M311.834 130.441C311.834 130.441 317.334 120.541 322.334 125.541C327.334 130.541 326.734 142.341 320.634 152.941C316.334 160.241 309.834 157.041 311.934 152.941" fill="#FFAB91"/>
<path d="M311.834 130.441C311.834 130.441 317.334 120.541 322.334 125.541C327.334 130.541 326.734 142.341 320.634 152.941C316.334 160.241 309.834 157.041 311.934 152.941" fill="#FFAB91"/>
<path opacity="0.43" d="M322.236 125.541C319.636 122.941 317.036 124.341 315.036 126.141C316.136 126.041 317.236 126.441 318.336 127.541C323.336 132.541 322.736 144.341 316.636 154.941C316.136 155.841 315.536 156.641 314.936 157.241C316.736 157.141 318.836 155.841 320.536 152.841C326.636 142.341 327.236 130.541 322.236 125.541Z" fill="#FFAB91"/>
<path d="M312.136 128.842C312.136 128.842 317.236 120.542 322.236 125.542C327.236 130.542 326.636 142.342 320.536 152.942C316.236 160.242 308.936 157.942 308.936 151.742" stroke="#46133C" stroke-width="3" stroke-miterlimit="10" stroke-linecap="round" stroke-linejoin="round"/>
<path d="M294.035 336.741C296.189 336.741 297.935 334.726 297.935 332.241C297.935 329.756 296.189 327.741 294.035 327.741C291.881 327.741 290.135 329.756 290.135 332.241C290.135 334.726 291.881 336.741 294.035 336.741Z" fill="#46133C"/>
<path d="M294.035 336.741C296.189 336.741 297.935 334.726 297.935 332.241C297.935 329.756 296.189 327.741 294.035 327.741C291.881 327.741 290.135 329.756 290.135 332.241C290.135 334.726 291.881 336.741 294.035 336.741Z" stroke="#46133C" stroke-width="4" stroke-miterlimit="10" stroke-linecap="round" stroke-linejoin="round"/>
<path d="M277.435 313.542C279.589 313.542 281.335 311.527 281.335 309.042C281.335 306.556 279.589 304.542 277.435 304.542C275.281 304.542 273.535 306.556 273.535 309.042C273.535 311.527 275.281 313.542 277.435 313.542Z" fill="#46133C"/>
<path d="M277.435 313.542C279.589 313.542 281.335 311.527 281.335 309.042C281.335 306.556 279.589 304.542 277.435 304.542C275.281 304.542 273.535 306.556 273.535 309.042C273.535 311.527 275.281 313.542 277.435 313.542Z" stroke="#46133C" stroke-width="4" stroke-miterlimit="10" stroke-linecap="round" stroke-linejoin="round"/>
<path d="M301.334 279.741C301.334 279.741 305.234 280.441 306.834 284.441" stroke="#46133C" stroke-width="3" stroke-miterlimit="10" stroke-linecap="round" stroke-linejoin="round"/>
<path d="M314.535 141.742C314.535 141.742 315.435 136.242 319.435 135.042" stroke="#46133C" stroke-width="3" stroke-miterlimit="10" stroke-linecap="round" stroke-linejoin="round"/>
<path d="M251.134 64.9416C251.134 64.9416 250.134 64.9416 248.534 64.3416C247.734 64.0416 246.834 63.6416 245.734 63.0416C244.734 62.4416 243.534 61.8416 242.334 61.0416C241.734 60.6416 241.034 60.2416 240.434 59.8416C239.834 59.4416 239.134 58.9416 238.434 58.5416C237.034 57.6416 235.634 56.5416 234.234 55.4416C233.534 54.8416 232.834 54.3416 232.034 53.7416C231.334 53.1416 230.634 52.5416 229.934 51.9416C228.534 50.7416 227.134 49.3416 225.734 48.0416C225.034 47.3416 224.334 46.6416 223.734 46.0416C223.034 45.3416 222.434 44.6416 221.734 43.9416C220.434 42.5416 219.234 41.1416 218.034 39.7416C216.934 38.3416 215.834 36.9416 214.834 35.6416C213.834 34.3416 212.934 33.0416 212.134 31.9416C211.334 30.7416 210.634 29.6416 210.034 28.6416C209.434 27.6416 208.934 26.7416 208.534 26.0416C207.734 24.5416 207.334 23.6416 207.334 23.6416C207.234 23.4416 207.334 23.2416 207.534 23.2416C207.634 23.1416 207.834 23.2416 207.934 23.3416C207.934 23.3416 208.634 24.0416 209.734 25.3416C210.234 25.9416 210.934 26.7416 211.634 27.6416C212.334 28.5416 213.234 29.5416 214.034 30.6416C214.934 31.7416 215.834 32.9416 216.834 34.2416C217.834 35.4416 218.934 36.8416 220.134 38.1416C221.334 39.4416 222.534 40.8416 223.834 42.1416C224.434 42.8416 225.134 43.4416 225.734 44.1416C226.434 44.8416 227.034 45.4416 227.734 46.1416C228.434 46.8416 229.134 47.4416 229.734 48.0416C230.434 48.6416 231.034 49.3416 231.834 49.9416C232.534 50.5416 233.234 51.1416 233.934 51.7416C234.634 52.3416 235.334 52.8416 236.034 53.4416C236.734 54.0416 237.434 54.5416 238.034 55.0416C238.734 55.5416 239.334 56.0416 240.034 56.5416C240.734 57.0416 241.334 57.4416 241.934 57.9416C242.534 58.3416 243.134 58.7416 243.734 59.1416C244.934 59.9416 246.034 60.5416 246.934 61.1416C247.934 61.7416 248.734 62.2416 249.434 62.7416C250.834 63.7416 251.434 64.5416 251.434 64.5416C251.534 64.6416 251.534 64.8416 251.334 65.0416C251.234 64.9416 251.234 64.9416 251.134 64.9416Z" fill="#46133C"/>
<path d="M280.135 71.6414C280.135 71.6414 279.835 72.1414 279.135 72.4414C278.835 72.6414 278.435 72.6414 277.935 72.6414C277.435 72.6414 276.935 72.7414 276.335 72.7414C274.035 72.8414 271.035 72.8414 267.935 72.4414C266.435 72.2414 264.935 71.9414 263.535 71.6414C262.835 71.4414 262.135 71.2414 261.535 71.1414C260.935 70.9414 260.335 70.7414 259.735 70.5414C259.235 70.3414 258.735 70.1414 258.235 70.0414C257.835 69.8414 257.435 69.5414 257.235 69.3414C257.035 69.0414 256.835 68.7414 256.735 68.5414C256.635 68.3414 256.635 68.1414 256.635 68.1414C256.635 68.1414 256.735 68.0414 257.035 67.9414C257.235 67.8414 257.535 67.7414 257.935 67.6414C258.335 67.5414 258.735 67.5414 259.135 67.6414C259.535 67.7414 260.035 67.8414 260.535 68.0414C261.035 68.1414 261.635 68.3414 262.235 68.4414C262.835 68.5414 263.435 68.7414 264.135 68.8414C264.835 68.9414 265.535 69.1414 266.235 69.2414C266.935 69.3414 267.635 69.4414 268.335 69.5414C269.735 69.7414 271.235 69.9414 272.535 70.0414C273.935 70.1414 275.135 70.2414 276.235 70.3414C276.735 70.3414 277.235 70.3414 277.735 70.3414C278.135 70.3414 278.535 70.3414 278.935 70.5414C279.235 70.6414 279.535 70.8414 279.735 70.9414C279.935 71.0414 280.035 71.1414 280.035 71.1414C280.235 71.2414 280.235 71.5414 280.135 71.6414Z" fill="#46133C"/>
<path d="M300.834 59.8414C300.834 59.8414 299.434 60.5414 296.934 60.9414C295.634 61.1414 294.134 61.2414 292.334 61.1414C290.534 61.0414 288.534 60.9414 286.434 60.7414C284.234 60.5414 281.934 60.1414 279.434 59.6414C277.034 59.1414 274.434 58.5414 271.834 57.7414C270.534 57.3414 269.234 56.8414 267.934 56.4414C266.634 55.9414 265.334 55.4414 263.934 54.8414C262.634 54.2414 261.334 53.7414 260.034 53.0414C259.434 52.7414 258.734 52.4414 258.134 52.0414L256.234 50.9414C253.734 49.5414 251.234 47.9414 248.934 46.2414C247.734 45.4414 246.634 44.5414 245.534 43.7414C244.434 42.8414 243.434 41.9414 242.334 41.1414C240.334 39.3414 238.334 37.5414 236.634 35.7414C235.734 34.8414 234.934 33.9414 234.134 33.1414C233.334 32.2414 232.534 31.4414 231.934 30.6414C230.534 28.9414 229.234 27.4414 228.334 25.9414C227.334 24.5414 226.434 23.2414 225.834 22.1414C224.534 19.9414 223.934 18.6414 223.934 18.6414C223.834 18.4414 223.934 18.1414 224.134 18.0414C224.334 17.9414 224.534 18.0414 224.634 18.1414C224.634 18.1414 225.634 19.2414 227.234 21.1414C228.034 22.1414 229.034 23.2414 230.134 24.6414C231.234 26.0414 232.534 27.4414 233.834 29.0414C234.534 29.8414 235.334 30.6414 236.034 31.4414C236.834 32.2414 237.634 33.1414 238.534 33.9414C240.234 35.6414 242.134 37.3414 244.134 39.1414C245.134 39.9414 246.234 40.8414 247.234 41.6414C248.334 42.4414 249.434 43.2414 250.534 44.0414C252.834 45.6414 255.234 47.1414 257.634 48.4414C258.834 49.1414 260.134 49.7414 261.334 50.4414C262.534 51.0414 263.834 51.6414 265.134 52.2414C266.434 52.8414 267.634 53.2414 268.934 53.7414C270.234 54.1414 271.434 54.6414 272.734 55.0414C275.234 55.8414 277.734 56.5414 280.034 57.0414C282.434 57.5414 284.634 57.9414 286.734 58.2414C288.834 58.5414 290.734 58.7414 292.434 58.8414C294.134 58.9414 295.634 59.0414 296.834 59.1414C299.334 59.4414 300.734 59.7414 300.734 59.7414C300.834 59.6414 300.834 59.7414 300.834 59.8414C300.834 59.8414 300.834 59.7414 300.834 59.8414Z" fill="#46133C"/>
<path d="M143.635 267.741C146.135 251.841 125.335 245.541 117.135 252.241C113.035 273.941 96.0353 287.441 116.435 295.841C128.635 300.841 129.435 292.941 135.835 299.441C144.335 307.941 150.435 311.341 150.435 311.341L167.935 295.841C163.735 292.741 141.235 282.941 143.635 267.741Z" fill="#FFAB91"/>
<path opacity="0.43" d="M139.635 297.541C132.235 288.841 130.435 292.841 121.635 289.941C101.235 283.041 113.635 271.641 118.735 251.141C118.135 251.441 117.635 251.841 117.135 252.141C113.035 273.841 96.0353 287.341 116.435 295.741C128.635 300.741 129.435 292.841 135.835 299.341C144.335 307.841 150.435 311.241 150.435 311.241L153.435 308.541C152.335 308.041 146.835 306.041 139.635 297.541Z" fill="#FFAB91"/>
<path d="M141.335 266.741C140.135 282.841 160.135 293.541 169.935 297.541L167.935 295.841C163.835 292.741 141.235 282.941 143.635 267.741C146.035 252.841 126.335 246.341 117.135 252.241C125.035 247.441 142.235 253.141 141.335 266.741Z" fill="white"/>
<path d="M143.635 267.741C146.135 251.841 125.335 245.541 117.135 252.241C110.535 257.141 96.0352 287.441 116.435 295.841C128.635 300.841 129.435 292.941 135.835 299.441C144.335 307.941 150.435 311.341 150.435 311.341L167.935 295.841C163.735 292.741 141.235 282.941 143.635 267.741Z" stroke="#46133C" stroke-width="3" stroke-miterlimit="10" stroke-linecap="round" stroke-linejoin="round"/>
<path d="M102.635 242.441H89.1348V249.541H102.635C105.835 249.541 108.435 252.541 108.435 256.141V267.541C108.435 271.241 105.835 274.141 102.635 274.141H89.1348V281.241H102.635C109.235 281.241 114.535 275.141 114.535 267.541V256.141C114.535 248.541 109.235 242.441 102.635 242.441Z" fill="#A8DDEF"/>
<path opacity="0.42" d="M102.635 242.441H89.1348V249.541H102.635C105.835 249.541 108.435 252.541 108.435 256.141V267.541C108.435 271.241 105.835 274.141 102.635 274.141H89.1348V281.241H102.635C109.235 281.241 114.535 275.141 114.535 267.541V256.141C114.535 248.541 109.235 242.441 102.635 242.441Z" fill="#939EC5"/>
<path d="M102.635 242.441H89.1348V249.541H101.435C104.635 249.541 107.235 252.541 107.235 256.141V267.541C107.235 271.241 104.635 274.141 101.435 274.141H89.1348V281.241H102.635C109.235 281.241 114.535 275.141 114.535 267.541V256.141C114.535 248.541 109.235 242.441 102.635 242.441Z" stroke="#46133C" stroke-width="3" stroke-miterlimit="10" stroke-linecap="round" stroke-linejoin="round"/>
<path d="M42.0347 231.241C39.1347 243.141 39.3347 256.941 42.6347 268.841C45.3347 278.241 50.3347 285.341 55.3347 289.941H83.6347C88.7347 285.441 93.7347 278.341 96.3347 268.841C99.7347 256.941 99.8347 243.141 96.9347 231.241H42.0347Z" fill="#A8DDEF"/>
<path d="M42.0347 231.241C39.1347 243.141 39.3347 256.941 42.6347 268.841C45.3347 278.241 50.3347 285.341 55.3347 289.941H83.6347C88.7347 285.441 93.7347 278.341 96.3347 268.841C99.7347 256.941 99.8347 243.141 96.9347 231.241H42.0347Z" fill="#A8DDEF"/>
<path d="M46.1343 268.941C42.7343 257.041 42.6343 243.241 45.5343 231.341H42.1343C39.2343 243.241 39.4343 257.041 42.7343 268.941C45.4343 278.341 50.4343 285.441 55.4343 290.041H58.8343C53.8343 285.441 48.7343 278.341 46.1343 268.941Z" fill="white"/>
<path opacity="0.42" d="M97.1356 231.241H87.7356C90.5356 244.041 90.9356 260.541 87.7356 271.241C85.4356 278.841 79.3355 289.241 72.9355 289.941H83.7356C88.8356 285.441 93.8355 278.341 96.4355 268.841C99.8355 256.941 99.9356 243.141 97.1356 231.241Z" fill="#939EC5"/>
<path d="M42.0347 231.241C39.1347 243.141 39.3347 256.941 42.6347 268.841C45.3347 278.241 50.3347 285.341 55.3347 289.941H83.6347C88.7347 285.441 93.7347 278.341 96.3347 268.841C99.7347 256.941 99.8347 243.141 96.9347 231.241H42.0347Z" stroke="#46133C" stroke-width="3" stroke-miterlimit="10" stroke-linecap="round" stroke-linejoin="round"/>
<path d="M110.336 289.241C117.836 288.341 121.236 283.041 117.036 279.641C115.036 277.941 106.336 278.641 103.436 280.441C100.336 282.441 103.736 290.041 110.336 289.241Z" fill="#FFAB91"/>
<path d="M110.336 289.241C117.836 288.341 121.236 283.041 117.036 279.641C115.036 277.941 106.336 278.641 103.436 280.441C100.336 282.441 103.736 290.041 110.336 289.241Z" stroke="#46133C" stroke-width="3" stroke-miterlimit="10" stroke-linecap="round" stroke-linejoin="round"/>
<path d="M103.935 273.441C109.835 272.941 114.735 270.741 113.535 266.841C112.635 263.941 104.635 260.441 100.735 263.541C98.0353 265.741 98.4353 273.841 103.935 273.441Z" fill="#FFAB91"/>
<path d="M103.935 273.441C109.835 272.941 114.735 270.741 113.535 266.841C112.635 263.941 104.635 260.441 100.735 263.541C98.0353 265.741 98.4353 273.841 103.935 273.441Z" stroke="#46133C" stroke-width="3" stroke-miterlimit="10" stroke-linecap="round" stroke-linejoin="round"/>
<path d="M104.735 261.941C115.235 263.241 121.235 256.641 112.935 251.941C109.235 249.841 102.535 248.641 99.8346 251.741C97.1346 254.941 100.135 261.441 104.735 261.941Z" fill="#FFAB91"/>
<path d="M104.735 261.941C115.235 263.241 121.235 256.641 112.935 251.941C109.235 249.841 102.535 248.641 99.8346 251.741C97.1346 254.941 100.135 261.441 104.735 261.941Z" stroke="#46133C" stroke-width="3" stroke-miterlimit="10" stroke-linecap="round" stroke-linejoin="round"/>
<path d="M124.636 283.741C124.636 283.741 119.236 278.541 121.136 271.441C123.036 264.341 124.636 262.141 124.636 262.141C124.636 262.141 113.436 264.241 113.436 259.741C113.436 255.241 116.336 248.041 130.136 250.141" fill="#FFAB91"/>
<path d="M124.635 283.741C124.635 283.741 120.435 278.741 121.135 271.441C121.835 264.341 125.835 261.741 125.835 261.741C125.835 261.741 113.035 265.241 112.035 260.841C111.035 256.441 116.735 246.641 132.135 250.741" stroke="#46133C" stroke-width="3" stroke-miterlimit="10" stroke-linecap="round" stroke-linejoin="round"/>
<path d="M240.135 190.642C240.135 190.642 244.335 191.542 246.735 189.142" stroke="#46133C" stroke-width="3" stroke-miterlimit="10" stroke-linecap="round" stroke-linejoin="round"/>
<path d="M147.635 316.341C147.635 316.341 156.435 325.541 160.535 329.641C166.035 328.641 162.635 332.041 166.035 328.641C169.435 325.241 194.235 304.141 194.235 304.141L175.235 290.041C175.235 289.941 147.635 310.841 147.635 316.341Z" fill="#FF3B61"/>
<path d="M164.935 325.741C162.035 324.241 152.035 312.441 152.035 312.441C152.035 310.441 155.735 306.341 160.435 301.941C153.835 307.641 147.635 313.741 147.635 316.341C147.635 316.341 156.435 325.541 160.535 329.641C166.035 328.641 162.635 332.041 166.035 328.641C166.535 328.141 167.435 327.341 168.635 326.241C168.335 326.141 167.835 327.141 164.935 325.741Z" fill="#EE406D"/>
<path d="M171.334 323.841C179.634 316.541 194.334 304.041 194.334 304.041L194.234 303.941C187.534 309.741 175.234 320.241 171.334 323.841Z" fill="#EE406D"/>
<path d="M175.236 289.941C175.236 289.941 174.036 290.841 172.236 292.241L191.136 306.341C191.136 306.341 169.636 324.641 163.936 329.941C164.336 330.341 164.136 330.541 166.036 328.641C169.436 325.241 194.236 304.141 194.236 304.141L175.236 289.941Z" fill="white"/>
<path d="M147.635 316.341C147.635 316.341 161.035 333.641 166.035 328.641C169.435 325.241 194.235 304.141 194.235 304.141L175.235 290.041C175.235 289.941 147.635 310.841 147.635 316.341Z" stroke="#46133C" stroke-width="3" stroke-miterlimit="10" stroke-linecap="round" stroke-linejoin="round"/>
<path d="M59.6341 179.642C59.6341 179.642 54.3341 189.442 57.0341 197.242C59.7341 204.942 62.5341 208.642 59.6341 214.242" stroke="#46133C" stroke-width="3" stroke-miterlimit="10" stroke-linecap="round" stroke-linejoin="round"/>
</svg>
