<svg width="358" height="29" viewBox="0 0 358 29" fill="none" xmlns="http://www.w3.org/2000/svg">
<path d="M0.592 1.8V27H7.864V1.8H0.592ZM16.036 1.8L5.848 13.824L16.252 27H24.712L14.164 13.608L24.172 1.8H16.036ZM27.0253 1.8V18.72C27.0253 20.424 27.3013 21.876 27.8533 23.076C28.4053 24.276 29.1613 25.26 30.1213 26.028C31.1053 26.772 32.2333 27.324 33.5053 27.684C34.8013 28.044 36.1693 28.224 37.6093 28.224C39.0733 28.224 40.4413 28.044 41.7133 27.684C42.9853 27.324 44.1133 26.772 45.0973 26.028C46.0813 25.26 46.8493 24.276 47.4013 23.076C47.9533 21.876 48.2293 20.424 48.2293 18.72V1.8H41.2453V18.144C41.2453 19.296 40.9453 20.232 40.3453 20.952C39.7453 21.648 38.8333 21.996 37.6093 21.996C36.4093 21.996 35.5093 21.648 34.9093 20.952C34.3093 20.232 34.0093 19.296 34.0093 18.144V1.8H27.0253ZM53.2209 1.8V27H60.2049V1.8H53.2209ZM57.6849 7.452H62.5449C63.6489 7.452 64.5009 7.692 65.1009 8.172C65.7009 8.652 66.0009 9.336 66.0009 10.224C66.0009 11.136 65.7009 11.832 65.1009 12.312C64.5009 12.792 63.6489 13.032 62.5449 13.032H57.6849V18.648H62.5449C64.8489 18.648 66.7449 18.312 68.2329 17.64C69.7449 16.968 70.8609 15.996 71.5809 14.724C72.3249 13.452 72.6969 11.952 72.6969 10.224C72.6969 8.472 72.3249 6.972 71.5809 5.724C70.8609 4.476 69.7449 3.516 68.2329 2.844C66.7449 2.148 64.8489 1.8 62.5449 1.8H57.6849V7.452ZM82.652 14.4C82.652 12.984 82.964 11.784 83.588 10.8C84.236 9.792 85.088 9.036 86.144 8.532C87.2 8.004 88.364 7.74 89.636 7.74C90.836 7.74 91.88 7.896 92.768 8.208C93.656 8.52 94.448 8.928 95.144 9.432C95.84 9.912 96.452 10.428 96.98 10.98V3.636C95.996 2.892 94.904 2.292 93.704 1.836C92.528 1.38 91.016 1.152 89.168 1.152C87.08 1.152 85.16 1.464 83.408 2.088C81.656 2.712 80.156 3.612 78.908 4.788C77.66 5.964 76.688 7.368 75.992 9C75.32 10.608 74.984 12.408 74.984 14.4C74.984 16.392 75.32 18.204 75.992 19.836C76.688 21.444 77.66 22.836 78.908 24.012C80.156 25.188 81.656 26.088 83.408 26.712C85.16 27.336 87.08 27.648 89.168 27.648C91.016 27.648 92.528 27.42 93.704 26.964C94.904 26.484 95.996 25.884 96.98 25.164V17.82C96.452 18.372 95.84 18.9 95.144 19.404C94.448 19.884 93.656 20.28 92.768 20.592C91.88 20.904 90.836 21.06 89.636 21.06C88.364 21.06 87.2 20.808 86.144 20.304C85.088 19.776 84.236 19.02 83.588 18.036C82.964 17.028 82.652 15.816 82.652 14.4ZM107.747 14.4C107.747 13.032 108.011 11.832 108.539 10.8C109.067 9.768 109.811 8.964 110.771 8.388C111.731 7.788 112.859 7.488 114.155 7.488C115.523 7.488 116.675 7.788 117.611 8.388C118.571 8.964 119.303 9.768 119.807 10.8C120.311 11.832 120.563 13.032 120.563 14.4C120.563 15.744 120.299 16.944 119.771 18C119.243 19.032 118.499 19.848 117.539 20.448C116.603 21.024 115.475 21.312 114.155 21.312C112.859 21.312 111.731 21.024 110.771 20.448C109.811 19.848 109.067 19.032 108.539 18C108.011 16.944 107.747 15.744 107.747 14.4ZM100.367 14.4C100.367 16.368 100.703 18.18 101.375 19.836C102.047 21.492 102.995 22.932 104.219 24.156C105.467 25.356 106.931 26.292 108.611 26.964C110.291 27.612 112.139 27.936 114.155 27.936C116.171 27.936 118.019 27.612 119.699 26.964C121.403 26.292 122.867 25.356 124.091 24.156C125.315 22.932 126.263 21.492 126.935 19.836C127.607 18.18 127.943 16.368 127.943 14.4C127.943 12.408 127.595 10.608 126.899 9C126.227 7.368 125.267 5.976 124.019 4.824C122.771 3.648 121.307 2.748 119.627 2.124C117.971 1.476 116.147 1.152 114.155 1.152C112.211 1.152 110.399 1.476 108.719 2.124C107.063 2.748 105.611 3.648 104.363 4.824C103.115 5.976 102.131 7.368 101.411 9C100.715 10.608 100.367 12.408 100.367 14.4ZM141.616 15.516L136.108 1.8H127.9L141.616 28.692L155.368 1.8H147.16L141.616 15.516ZM169.694 1.8V27H176.678V1.8H169.694ZM174.158 7.452H179.018C180.122 7.452 180.974 7.692 181.574 8.172C182.174 8.652 182.474 9.336 182.474 10.224C182.474 11.136 182.174 11.832 181.574 12.312C180.974 12.792 180.122 13.032 179.018 13.032H174.158V18.648H179.018C181.322 18.648 183.218 18.312 184.706 17.64C186.218 16.968 187.334 15.996 188.054 14.724C188.798 13.452 189.17 11.952 189.17 10.224C189.17 8.472 188.798 6.972 188.054 5.724C187.334 4.476 186.218 3.516 184.706 2.844C183.218 2.148 181.322 1.8 179.018 1.8H174.158V7.452ZM194.793 22.932H208.113L207.933 17.784H195.009L194.793 22.932ZM201.381 12.132L204.729 19.692L204.333 21.492L207.213 27H215.133L201.381 0.107999L187.665 27H195.585L198.501 21.24L198.069 19.692L201.381 12.132ZM224.452 15.876L231.04 27H239.176L231.616 15.876H224.452ZM217.612 1.8V27H224.596V1.8H217.612ZM222.076 7.704H226.936C227.68 7.704 228.304 7.812 228.808 8.028C229.312 8.244 229.696 8.568 229.96 9C230.248 9.408 230.392 9.912 230.392 10.512C230.392 11.112 230.248 11.628 229.96 12.06C229.696 12.492 229.312 12.816 228.808 13.032C228.304 13.248 227.68 13.356 226.936 13.356H222.076V18.648H227.512C229.816 18.648 231.712 18.3 233.2 17.604C234.712 16.884 235.828 15.888 236.548 14.616C237.292 13.32 237.664 11.856 237.664 10.224C237.664 8.568 237.292 7.116 236.548 5.868C235.828 4.596 234.712 3.6 233.2 2.88C231.712 2.16 229.816 1.8 227.512 1.8H222.076V7.704ZM239.314 8.028H246.37V27H253.354V8.028H260.41V1.8H239.314V8.028ZM279.953 1.8V14.616L263.069 0.539999V27H269.765V14.184L286.649 28.26V1.8H279.953ZM296.578 27H309.286V21.348H296.578V27ZM296.578 7.452H309.286V1.8H296.578V7.452ZM296.578 16.632H308.566V11.16H296.578V16.632ZM291.826 1.8V27H298.522V1.8H291.826ZM320.955 15.876L327.543 27H335.679L328.119 15.876H320.955ZM314.115 1.8V27H321.099V1.8H314.115ZM318.579 7.704H323.439C324.183 7.704 324.807 7.812 325.311 8.028C325.815 8.244 326.199 8.568 326.463 9C326.751 9.408 326.895 9.912 326.895 10.512C326.895 11.112 326.751 11.628 326.463 12.06C326.199 12.492 325.815 12.816 325.311 13.032C324.807 13.248 324.183 13.356 323.439 13.356H318.579V18.648H324.015C326.319 18.648 328.215 18.3 329.703 17.604C331.215 16.884 332.331 15.888 333.051 14.616C333.795 13.32 334.167 11.856 334.167 10.224C334.167 8.568 333.795 7.116 333.051 5.868C332.331 4.596 331.215 3.6 329.703 2.88C328.215 2.16 326.319 1.8 324.015 1.8H318.579V7.704ZM341.65 17.784L336.898 21.24C337.45 22.488 338.266 23.628 339.346 24.66C340.426 25.668 341.698 26.46 343.162 27.036C344.65 27.636 346.258 27.936 347.986 27.936C349.21 27.936 350.41 27.756 351.586 27.396C352.762 27.06 353.806 26.556 354.718 25.884C355.654 25.188 356.386 24.324 356.914 23.292C357.466 22.26 357.742 21.072 357.742 19.728C357.742 18.72 357.586 17.808 357.274 16.992C356.962 16.176 356.518 15.456 355.942 14.832C355.366 14.184 354.682 13.632 353.89 13.176C353.122 12.696 352.27 12.288 351.334 11.952C350.254 11.568 349.294 11.22 348.454 10.908C347.638 10.572 346.99 10.224 346.51 9.864C346.054 9.48 345.826 9.012 345.826 8.46C345.826 7.98 346.03 7.596 346.438 7.308C346.846 7.02 347.398 6.876 348.094 6.876C348.646 6.876 349.186 6.984 349.714 7.2C350.242 7.416 350.734 7.728 351.19 8.136C351.67 8.52 352.09 9.012 352.45 9.612L357.706 6.696C357.25 5.832 356.602 4.98 355.762 4.14C354.922 3.276 353.854 2.568 352.558 2.016C351.262 1.44 349.726 1.152 347.95 1.152C346.246 1.152 344.698 1.44 343.306 2.016C341.914 2.592 340.798 3.432 339.958 4.536C339.118 5.616 338.698 6.948 338.698 8.532C338.698 9.78 338.926 10.86 339.382 11.772C339.862 12.684 340.45 13.452 341.146 14.076C341.866 14.7 342.61 15.216 343.378 15.624C344.146 16.008 344.842 16.32 345.466 16.56C346.738 17.04 347.722 17.448 348.418 17.784C349.138 18.12 349.642 18.456 349.93 18.792C350.218 19.104 350.362 19.5 350.362 19.98C350.362 20.652 350.11 21.168 349.606 21.528C349.102 21.864 348.466 22.032 347.698 22.032C346.906 22.032 346.138 21.864 345.394 21.528C344.65 21.192 343.966 20.712 343.342 20.088C342.718 19.44 342.154 18.672 341.65 17.784Z" fill="#CDCDCD"/>
<path d="M157.378 24.264C157.378 25.272 157.726 26.148 158.422 26.892C159.142 27.612 160.066 27.972 161.194 27.972C162.322 27.972 163.234 27.612 163.93 26.892C164.626 26.148 164.974 25.272 164.974 24.264C164.974 23.232 164.626 22.356 163.93 21.636C163.234 20.892 162.322 20.52 161.194 20.52C160.066 20.52 159.142 20.892 158.422 21.636C157.726 22.356 157.378 23.232 157.378 24.264Z" fill="#EE406D" fill-opacity="0.83"/>
</svg>
